<?xml version="1.0" encoding="UTF-8" standalone="no"?>
<!-- Created with Inkscape (http://www.inkscape.org/) -->

<svg
   xmlns:dc="http://purl.org/dc/elements/1.1/"
   xmlns:cc="http://creativecommons.org/ns#"
   xmlns:rdf="http://www.w3.org/1999/02/22-rdf-syntax-ns#"
   xmlns:svg="http://www.w3.org/2000/svg"
   xmlns="http://www.w3.org/2000/svg"
   xmlns:sodipodi="http://sodipodi.sourceforge.net/DTD/sodipodi-0.dtd"
   xmlns:inkscape="http://www.inkscape.org/namespaces/inkscape"
   width="112.61826mm"
   height="37.077587mm"
   viewBox="0 0 112.61826 37.077587"
   version="1.1"
   id="svg8"
   sodipodi:docname="logotest.svg"
   inkscape:version="0.92.2 (5c3e80d, 2017-08-06)">
  <defs
     id="defs2" />
  <sodipodi:namedview
     id="base"
     pagecolor="#ffffff"
     bordercolor="#666666"
     borderopacity="1.0"
     inkscape:pageopacity="0.0"
     inkscape:pageshadow="2"
     inkscape:zoom="1"
     inkscape:cx="-113.31657"
     inkscape:cy="258.22968"
     inkscape:document-units="px"
     inkscape:current-layer="layer1"
     showgrid="false"
     showborder="true"
     inkscape:window-width="1920"
     inkscape:window-height="1001"
     inkscape:window-x="-9"
     inkscape:window-y="-9"
     inkscape:window-maximized="1" />
  <metadata
     id="metadata5">
    <rdf:RDF>
      <cc:Work
         rdf:about="">
        <dc:format>image/svg+xml</dc:format>
        <dc:type
           rdf:resource="http://purl.org/dc/dcmitype/StillImage" />
        <dc:title></dc:title>
      </cc:Work>
    </rdf:RDF>
  </metadata>
  <g
     inkscape:label="Layer 1"
     inkscape:groupmode="layer"
     id="layer1"
     transform="translate(-50.599277,-81.736104)">
    <g
       aria-label="SmartWebArt"
       transform="matrix(0.61872587,0,0,0.61924743,149.58741,-130.11191)"
       style="font-style:normal;font-variant:normal;font-weight:normal;font-stretch:normal;font-size:40px;line-height:1.25;font-family:'Orator Std';-inkscape-font-specification:'Orator Std, Normal';font-variant-ligatures:normal;font-variant-caps:normal;font-variant-numeric:normal;font-feature-settings:normal;text-align:start;letter-spacing:0px;word-spacing:0px;writing-mode:lr-tb;text-anchor:start;opacity:1;fill:#000000;fill-opacity:1;stroke:none;stroke-width:0.0427446;stroke-miterlimit:4;stroke-dasharray:none"
       id="flowRoot3707">
      <path
         d="m -146.83342,351.1164 c -0.67761,-4.71554 -2.51115,-9.0108 -6.25794,-9.0108 -3.78666,0 -6.17823,4.49095 -6.17823,9.54331 0,5.50144 2.03284,7.29782 5.10202,9.82399 2.75031,2.2455 5.0223,3.92961 5.0223,8.86968 0,4.49098 -1.63424,6.68031 -3.94609,6.68031 -3.22862,0 -3.86638,-3.14368 -4.22511,-7.29784 l -2.67059,0.50524 c 0.39859,5.95053 2.11255,10.32924 6.81598,10.32924 4.46427,0 6.6964,-4.6594 6.6964,-10.55378 0,-5.78212 -2.23213,-8.08375 -5.50061,-10.83448 -4.18526,-3.53664 -4.62371,-4.49096 -4.62371,-7.52236 0,-3.14369 0.99649,-6.00668 3.50764,-6.00668 2.27199,0 3.22862,2.75072 3.66708,5.50144 z"
         id="path3715"
         inkscape:connector-curvature="0"
         style="opacity:1;fill:#000000;fill-opacity:1;stroke-width:0.0427446;stroke-miterlimit:4;stroke-dasharray:none"
         sodipodi:nodetypes="csscssccsscsscc" />
      <path
         d="m -135.01562,374.31953 4.68,-11 h 0.08 l 0.52,16.88 h 2.84 l -0.84001,-20.84 h -3.51999 l -3.76,9.04 -3.76,-9.04 h -3.52 l -0.84,20.84 h 2.84 l 0.52,-16.88 h 0.08 z"
         id="path3717"
         inkscape:connector-curvature="0"
         style="opacity:0.5;stroke-width:0.0427446;stroke-miterlimit:4;stroke-dasharray:none" />
      <path
         d="m -113.298,374.51953 1.92,6.2 2.64,-0.96 -6.56,-20.4 h -3.44 l -6.56,20.4 2.64,0.96 1.96,-6.2 z m -0.76,-2.4 h -5.92 l 2.96,-9.64 z"
         id="path3719"
         inkscape:connector-curvature="0"
         style="opacity:0.5;stroke-width:0.0427446;stroke-miterlimit:4;stroke-dasharray:none" />
      <path
         d="m -103.87709,369.52043 v -7.12 h 4.319995 c 2.4,0 3.52,1.4 3.52,3.28 0,2.36 -1.72,3.84 -4.320005,3.84 z m -2.67999,11.32 h 2.67999 v -8.92 h 3.879995 l 5.32,9.44 2.32,-1.4 -5.12,-8.44 c 2.52,-0.76 4.24,-3.28 4.24,-5.84 0,-4.04 -2.76,-5.68 -6.24,-5.68 h -7.079985 z"
         id="path3721"
         inkscape:connector-curvature="0"
         style="opacity:0.5;stroke-width:0.0427446;stroke-miterlimit:4;stroke-dasharray:none" />
      <path
         d="m -86.579052,381.05406 h 2.68 v -18.44 h 5.64 v -2.4 h -14.08 v 2.4 h 5.76 z"
         id="path3723"
         inkscape:connector-curvature="0"
         style="opacity:0.5;stroke-width:0.0427446;stroke-miterlimit:4;stroke-dasharray:none" />
      <path
         d="m -61.661441,343.12013 -1.28,27.80003 h -0.08 l -3.88,-19.47667 h -0.8 l -3.88,19.47667 h -0.08 l -1.28,-27.80003 -2.68,0.72135 2.68,37.73258 h 1.16 l 4.44,-22.3621 h 0.08 l 4.44,22.3621 h 1.16 l 2.68,-37.73258 z"
         id="path3725"
         inkscape:connector-curvature="0"
         style="stroke-width:0.0427446;stroke-miterlimit:4;stroke-dasharray:none" />
      <path
         d="m -56.734334,381.05406 h 12.999999 v -2.4 h -10.319999 v -7.4 h 8.52 v -2.4 h -8.52 v -6.24 h 10.319999 v -2.4 h -12.999999 z"
         id="path3727"
         inkscape:connector-curvature="0"
         style="opacity:0.5;stroke-width:0.0427446;stroke-miterlimit:4;stroke-dasharray:none" />
      <path
         d="m -36.151979,378.65406 v -7.12 h 3.759999 c 2.56,0 3.92,1.68 3.92,3.76 0,2.84 -2.2,3.36 -4.56,3.36 z m 0,-9.52 v -6.52 h 2.839999 c 1.88,0 3.64,0.68 3.64,3.16 0,1.88 -1.16,3.36 -3.48,3.36 z m 3.639999,11.92 c 4.36,0 6.84,-2.2 6.84,-5.96 0,-2.36 -1.28,-4.32 -3.56,-5.04 1.6,-0.88 2.36,-2.48 2.36,-4.28 0,-3.56 -2.28,-5.56 -7.559999,-5.56 h -6.559999 v 2.4 h 2.16 v 16.04 h -2.16 v 2.4 z"
         id="path3729"
         inkscape:connector-curvature="0"
         style="opacity:0.5;stroke-width:0.0427446;stroke-miterlimit:4;stroke-dasharray:none" />
      <path
         d="m -13.089621,368.3351 2.08,12.38443 2.6400006,-1.0179 -6.7600006,-37.43603 h -3.2 l -6.76,37.43603 2.64,1.0179 2.08,-12.38443 z m -0.64,-3.39299 h -6 l 2.96,-17.64357 h 0.08 z"
         id="path3731"
         inkscape:connector-curvature="0"
         style="stroke-width:0.0427446;stroke-miterlimit:4;stroke-dasharray:none" />
      <path
         d="m -3.8025124,368.87953 v -7.12 h 4.32000099 c 2.40000061,0 3.52000101,1.4 3.52000101,3.28 0,2.36 -1.7200004,3.84 -4.32000122,3.84 z m -2.6800006,11.32 h 2.6800006 v -8.92 h 3.88000098 l 5.32000122,9.44 2.3200006,-1.4 -5.1200012,-8.44 c 2.5200006,-0.76 4.240001,-3.28 4.240001,-5.84 0,-4.04 -2.7600006,-5.68 -6.24000141,-5.68 H -6.482513 Z"
         id="path3733"
         inkscape:connector-curvature="0"
         style="opacity:0.5;stroke-width:0.0427446;stroke-miterlimit:4;stroke-dasharray:none" />
      <path
         d="m 13.738563,386.82215 h 2.670589 v -23.54382 h 5.620194 v -3.06427 H 7.9987901 v 3.06427 h 5.7397729 z"
         id="path3735"
         inkscape:connector-curvature="0"
         style="opacity:0.5;stroke-width:0.04829912;stroke-miterlimit:4;stroke-dasharray:none" />
    </g>
    <flowRoot
       xml:space="preserve"
       id="flowRoot3699"
       style="font-style:normal;font-weight:normal;font-size:40px;line-height:1.25;font-family:sans-serif;letter-spacing:0px;word-spacing:0px;fill:#000000;fill-opacity:1;stroke:none"
       transform="scale(0.26458333)"><flowRegion
         id="flowRegion3701"><rect
           id="rect3703"
           width="100"
           height="77.000008"
           x="-370"
           y="112.51968" /></flowRegion><flowPara
         id="flowPara3705"></flowPara></flowRoot>    <rect
       style="opacity:1;fill:#000000;fill-opacity:1;stroke-width:0.26458332"
       id="rect5027"
       width="44.068756"
       height="1.4400135"
       x="57.13446"
       y="87.332909" />
    <rect
       style="opacity:0.5;fill:#000000;fill-opacity:1;stroke-width:0.03175274;stroke-miterlimit:4;stroke-dasharray:none"
       id="rect5029"
       width="97.315933"
       height="1.4330401"
       x="60.771599"
       y="107.99368" />
    <flowRoot
       xml:space="preserve"
       id="flowRoot5031"
       style="font-style:normal;font-weight:normal;font-size:40px;line-height:1.25;font-family:sans-serif;letter-spacing:0px;word-spacing:0px;fill:#000000;fill-opacity:1;stroke:none"
       transform="matrix(0.22186355,0,0,0.20650407,145.15316,20.298937)"><flowRegion
         id="flowRegion5033"><rect
           id="rect5035"
           width="383"
           height="49"
           x="-289"
           y="432.51968" /></flowRegion><flowPara
         id="flowPara5037">web development</flowPara></flowRoot>  </g>
</svg>
